<?xml version="1.0" encoding="UTF-8" standalone="no"?>
<!-- Created with Inkscape (http://www.inkscape.org/) -->
<svg xmlns:dc="http://purl.org/dc/elements/1.1/" xmlns:cc="http://creativecommons.org/ns#" xmlns:rdf="http://www.w3.org/1999/02/22-rdf-syntax-ns#" xmlns:svg="http://www.w3.org/2000/svg" xmlns="http://www.w3.org/2000/svg" xmlns:sodipodi="http://sodipodi.sourceforge.net/DTD/sodipodi-0.dtd" xmlns:inkscape="http://www.inkscape.org/namespaces/inkscape" width="451.66367" height="451.65308" id="svg2" sodipodi:version="0.32" inkscape:version="0.45+devel" inkscape:export-filename="/home/renato/Desktop/FlaLinux4.gif" inkscape:export-xdpi="90" inkscape:export-ydpi="90" sodipodi:docname="RenOliver_FlaLinux.svg" sodipodi:docbase="/home/renato/Desktop/Imagens/GIMP" inkscape:output_extension="org.inkscape.output.svg.inkscape" version="1.0">
  <defs id="defs4"/>
  <sodipodi:namedview id="base" pagecolor="#ffffff" bordercolor="#666666" borderopacity="1.0" inkscape:pageopacity="0.0" inkscape:pageshadow="2" inkscape:zoom="1.0516922" inkscape:cx="225.83183" inkscape:cy="225.82654" inkscape:document-units="px" inkscape:current-layer="layer1" inkscape:window-width="1024" inkscape:window-height="688" inkscape:window-x="0" inkscape:window-y="0" showgrid="false"/>
  <metadata id="metadata7">
    <rdf:RDF>
      <cc:Work rdf:about="">
        <dc:format>image/svg+xml</dc:format>
        <dc:type rdf:resource="http://purl.org/dc/dcmitype/StillImage"/>
      </cc:Work>
    </rdf:RDF>
  </metadata>
  <g inkscape:label="Camada 1" inkscape:groupmode="layer" id="layer1" transform="translate(-132.848, -311.326)">
    <rect style="fill: rgb(0, 0, 0); fill-opacity: 1; stroke: rgb(255, 255, 255); stroke-width: 1.61638; stroke-opacity: 1;" id="rect2247" width="21.228037" height="13.104392" x="218.67767" y="748.70197"/>
    <rect style="fill: rgb(0, 0, 0); fill-opacity: 1; stroke: rgb(255, 255, 255); stroke-width: 1.63785; stroke-opacity: 1;" id="rect2249" width="22.201628" height="13.223119" x="297.96152" y="748.9375"/>
    <rect y="748.70197" x="403.09531" height="13.104392" width="21.228037" id="rect2260" style="fill: rgb(0, 0, 0); fill-opacity: 1; stroke: rgb(255, 255, 255); stroke-width: 1.61638; stroke-opacity: 1;"/>
    <rect y="748.44653" x="482.39328" height="13.699984" width="22.173416" id="rect2262" style="fill: rgb(0, 0, 0); fill-opacity: 1; stroke: rgb(255, 255, 255); stroke-width: 1.66606; stroke-opacity: 1;"/>
    <path style="fill: rgb(0, 0, 0); fill-rule: evenodd; stroke: rgb(0, 0, 0); stroke-width: 1.85803px; stroke-linecap: butt; stroke-linejoin: miter; stroke-opacity: 1;" d="M 219.79387,489.76377 C 228.98495,474.0057 228.32875,444.70765 231.07477,420.08763 C 236.53307,352.0907 297.94341,315.1199 358.81437,312.25549 C 443.02122,314.92446 477.99372,375.40716 485.5586,424.7327 C 488.15055,447.84932 487.88288,471.05922 496.8395,491.75452 C 371.57164,565.1594 292.73773,534.08791 219.79387,489.76377 z" id="path2237" sodipodi:nodetypes="cccccc"/>
    <path style="fill: rgb(255, 255, 255); fill-rule: evenodd; stroke: rgb(0, 0, 0); stroke-width: 1.85803px; stroke-linecap: butt; stroke-linejoin: miter; stroke-opacity: 1;" d="M 201.87714,616.50798 L 187.94191,712.06385 L 354.61494,714.05459 L 360.08461,684.42108 L 366.44556,714.05459 L 531.01398,712.06385 L 517.74232,613.85366 L 201.87714,616.50798 z" id="path2239" sodipodi:nodetypes="cccccccc"/>
    <path style="fill: rgb(255, 255, 255); fill-rule: evenodd; stroke: rgb(0, 0, 0); stroke-width: 1.81498px; stroke-linecap: butt; stroke-linejoin: miter; stroke-opacity: 1;" d="M 258.92371,519.66281 C 320.44295,464.62075 384.13005,441.86568 457.04606,519.34627 L 359.47826,547.51695 L 258.92371,519.66281 z" id="path2271" sodipodi:nodetypes="cccc"/>
    <path style="fill: rgb(0, 0, 0); fill-rule: evenodd; stroke: rgb(0, 0, 0); stroke-width: 1.85803px; stroke-linecap: butt; stroke-linejoin: miter; stroke-opacity: 1;" d="M 167.03907,551.14513 C 152.54429,564.84673 130.4802,578.2692 134.19175,598.59128 C 155.96855,604.59173 167.18734,584.19721 182.63326,574.37051 L 167.03907,551.14513 z" id="path2273" sodipodi:nodetypes="cccc"/>
    <path style="fill: rgb(0, 0, 0); fill-rule: evenodd; stroke: rgb(0, 0, 0); stroke-width: 1.85803px; stroke-linecap: butt; stroke-linejoin: miter; stroke-opacity: 1;" d="M 552.24861,552.80409 C 568.40771,564.21624 585.3351,575.26253 583.43699,595.27335 C 570.05475,603.13035 556.6725,589.49735 543.29026,580.67455 L 552.24861,552.80409 z" id="path2275" sodipodi:nodetypes="cccc"/>
    <path style="fill: rgb(255, 0, 0); fill-rule: evenodd; stroke: rgb(255, 0, 0); stroke-width: 1.85803px; stroke-linecap: butt; stroke-linejoin: miter; stroke-opacity: 1;" d="M 168.36624,599.91843 L 196.56849,589.30112 L 201.87714,617.17158 C 284.41446,663.58888 425.379,667.29517 517.74232,618.49873 L 526.3689,587.97395 L 555.56653,599.25485 L 574.14684,545.50469 L 496.50769,481.1372 C 461.12141,496.6731 429.48764,503.6318 400.28826,505.02617 C 390.43715,513.96323 380.25522,522.72213 359.14617,525.59721 C 345.95704,522.37325 332.90584,520.04597 318.00405,505.68975 C 288.97622,507.35952 243.73021,493.84943 220.12566,479.81004 L 149.45415,544.17751 L 168.36624,599.91843 z" id="path2222" sodipodi:nodetypes="cccccccccccccc"/>
    <path style="font-size: 56.4527px; font-style: normal; font-variant: normal; font-weight: normal; font-stretch: normal; text-align: start; line-height: 100%; text-anchor: start; fill: rgb(0, 0, 0); fill-opacity: 1; stroke: none; stroke-width: 1px; stroke-linecap: butt; stroke-linejoin: miter; stroke-opacity: 1; font-family: Lohit Hindi;" d="M 208.6956,671.85663 L 205.41539,667.58409 C 207.60219,666.77552 210.09221,665.16758 212.88545,662.76025 C 215.67867,660.35293 217.77359,658.10181 219.17023,656.00687 C 217.93898,656.41117 216.52399,656.61331 214.92525,656.6133 C 211.83798,656.61331 209.26527,655.60261 207.20711,653.58117 C 205.16731,651.55977 204.14741,649.00544 204.14741,645.91816 C 204.14741,641.10354 205.52565,637.24447 208.28213,634.34095 C 211.0386,631.41912 214.74147,629.95819 219.39074,629.95815 C 223.0844,629.95819 225.96033,631.06997 228.01852,633.29349 C 230.09504,635.4987 231.13331,638.54002 231.13335,642.41743 C 231.13331,648.70223 228.90976,654.73891 224.46267,660.5275 C 220.0339,666.29773 214.77822,670.07411 208.6956,671.85663 M 211.58991,645.36686 C 211.5899,648.65629 213.09677,650.30098 216.11053,650.30096 C 218.57297,650.30098 220.46575,649.47404 221.78888,647.82013 C 223.13034,646.16627 223.80109,643.92433 223.80111,641.09432 C 223.80109,637.87846 222.19314,636.27052 218.97727,636.27048 C 216.69857,636.27052 214.89767,637.13421 213.57457,638.86157 C 212.25145,640.57062 211.5899,642.73905 211.58991,645.36686" id="text2266"/>
    <path style="fill: rgb(0, 0, 0); fill-rule: evenodd; stroke: rgb(0, 0, 0); stroke-width: 1.85803px; stroke-linecap: butt; stroke-linejoin: miter; stroke-opacity: 1;" d="M 189.60087,725.66728 C 188.69094,729.54283 186.72081,743.02786 201.21356,746.90193 L 335.58899,747.23372 C 347.07347,743.31797 348.30154,736.28867 347.53346,728.65341 C 339.84402,685.93002 309.28873,673.69443 269.89434,673.24428 C 228.87083,673.10452 200.55851,688.66685 189.60087,725.66728 z" id="path2245" sodipodi:nodetypes="cccccc"/>
    <path sodipodi:nodetypes="cccccc" id="path2258" d="M 374.07675,725.66728 C 373.16682,729.54283 371.19669,743.02786 385.68944,746.90193 L 520.06486,747.23372 C 531.54935,743.31797 532.77741,736.28867 532.00934,728.65341 C 524.3199,685.93002 493.76461,673.69443 454.37022,673.24428 C 413.34671,673.10452 385.03439,688.66685 374.07675,725.66728 z" style="fill: rgb(0, 0, 0); fill-rule: evenodd; stroke: rgb(0, 0, 0); stroke-width: 1.85803px; stroke-linecap: butt; stroke-linejoin: miter; stroke-opacity: 1;"/>
    <path style="fill: rgb(0, 0, 0); fill-rule: evenodd; stroke: rgb(0, 0, 0); stroke-width: 1.85803px; stroke-linecap: butt; stroke-linejoin: miter; stroke-opacity: 1;" d="M 189.66888,507.90096 L 195.06495,528.89871 L 525.39832,534.52939 L 534.78281,512.9451 L 500.76409,484.55709 C 474.73953,496.45809 439.90894,506.87889 401.52332,508.25287 C 373.01596,534.05745 338.65698,531.94478 317.53231,509.66055 C 278.33129,511.32863 238.38278,494.72456 216.53193,482.56288 L 189.66888,507.90096 z" id="path5547" sodipodi:nodetypes="ccccccccc"/>
    <g id="g3247" transform="matrix(1.85803, 0, 0, 1.85803, -289.174, -447.622)">
      <path sodipodi:nodetypes="cccccc" id="path2227" d="M 347.5,489.68361 C 344.59077,497.6233 338.57102,509.50161 322.85714,507.18361 C 310.08594,504.49133 301.95125,496.04977 301.07143,478.61218 C 301.34753,457.03109 316.20696,447.32551 324.64286,447.54075 C 334.11198,447.34648 350.64073,456.60211 349.28572,477.8979 L 347.5,489.68361 z" style="fill: rgb(255, 255, 255); fill-rule: evenodd; stroke: rgb(0, 0, 0); stroke-width: 1px; stroke-linecap: butt; stroke-linejoin: miter; stroke-opacity: 1;"/>
      <path sodipodi:nodetypes="ccccc" id="path2231" d="M 349.64286,480.3979 C 351.56566,465.65854 359.86648,458.8917 373.21429,458.43361 C 382.03225,458.29837 397.81284,463.78479 398.03572,479.86218 C 398.10737,493.57463 386.34212,499.59113 376.78572,501.11218 C 357.92033,502.53361 349.04087,488.40459 349.64286,480.3979 z" style="fill: rgb(255, 255, 255); fill-rule: evenodd; stroke: rgb(0, 0, 0); stroke-width: 1px; stroke-linecap: butt; stroke-linejoin: miter; stroke-opacity: 1;"/>
      <path d="M 349.2857,480.39789 A 7.2321429,11.428572 0 1 1 334.82142,480.39789 A 7.2321429,11.428572 0 1 1 349.2857,480.39789 z" sodipodi:ry="11.428572" sodipodi:rx="7.2321429" sodipodi:cy="480.39789" sodipodi:cx="342.05356" id="path2233" style="fill: rgb(0, 0, 0); fill-opacity: 1; stroke: rgb(0, 0, 0); stroke-opacity: 1;" sodipodi:type="arc"/>
      <path d="M 362.85716,480.75504 A 6.1607141,10.357142 0 1 1 350.53573,480.75504 A 6.1607141,10.357142 0 1 1 362.85716,480.75504 z" sodipodi:ry="10.357142" sodipodi:rx="6.1607141" sodipodi:cy="480.75504" sodipodi:cx="356.69644" id="path2235" style="fill: rgb(0, 0, 0); fill-opacity: 1; stroke: rgb(0, 0, 0); stroke-opacity: 1;" sodipodi:type="arc"/>
    </g>
    <path style="fill: rgb(255, 255, 0); fill-rule: evenodd; stroke: rgb(0, 0, 0); stroke-width: 1.85803px; stroke-linecap: butt; stroke-linejoin: miter; stroke-opacity: 1;" d="M 360.14152,536.21453 C 366.99318,535.64462 391.75717,509.64356 401.28363,487.27533 C 396.02903,470.01322 372.29194,468.05659 358.81437,467.86554 C 345.38406,468.48466 320.63093,468.77509 315.34972,488.10481 C 321.42422,508.55151 353.96402,536.52458 360.14152,536.21453 z" id="path2225" sodipodi:nodetypes="ccccc"/>
    <path style="fill: rgb(0, 0, 0); fill-rule: evenodd; stroke: rgb(0, 0, 0); stroke-width: 1.84129px; stroke-linecap: butt; stroke-linejoin: miter; stroke-opacity: 1;" d="M 196.64062,576.45699 L 526.76596,576.7924 L 526.29675,588.68015 L 521.06833,608.8812 C 411.76751,634.68181 305.01652,632.15582 199.25485,604.08926 L 196.835,590.59554 L 196.64062,576.45699 z" id="path5549" sodipodi:nodetypes="ccccccc"/>
    <g id="g5538" transform="matrix(1.56771, 0, 0, 1.56771, -276.213, -703.763)">
      <rect y="818.78436" x="396.42218" height="26.441345" width="27.155632" id="rect4559" style="fill: rgb(255, 255, 255); fill-opacity: 1; stroke: rgb(255, 255, 255); stroke-width: 0.987225; stroke-opacity: 1;"/>
      <rect y="820.00006" x="397.72714" height="5.7064419" width="24.545727" id="rect4561" style="fill: rgb(255, 204, 0); fill-opacity: 1; stroke: rgb(255, 204, 0); stroke-width: 0.918558; stroke-opacity: 1;"/>
      <rect y="829.04688" x="397.75616" height="14.934095" width="24.39838" id="rect5532" style="fill: rgb(68, 85, 0); fill-opacity: 1; stroke: rgb(68, 85, 0); stroke-width: 0.976619; stroke-opacity: 1;"/>
      <path style="font-size: 14.1473px; font-style: normal; font-variant: normal; font-weight: bold; font-stretch: normal; text-align: start; line-height: 125%; text-anchor: start; fill: rgb(255, 255, 255); fill-opacity: 1; stroke: none; stroke-width: 1px; stroke-linecap: butt; stroke-linejoin: miter; stroke-opacity: 1; font-family: Lohit Hindi;" d="M 404.82755,834.58431 C 405.33109,834.58432 405.72463,834.47152 406.00818,834.24593 C 406.29172,834.02035 406.43349,833.71017 406.4335,833.31538 C 406.43349,833.05944 406.33327,832.86421 406.13283,832.72972 C 405.93729,832.59525 405.65374,832.52801 405.2822,832.528 L 403.7056,832.528 L 403.25095,834.58431 L 404.82755,834.58431 M 403.99158,838.83361 C 404.63689,838.83362 405.13309,838.69696 405.48019,838.42365 C 405.82729,838.15035 406.00083,837.75774 406.00084,837.24582 C 406.00083,836.92045 405.88107,836.67968 405.64152,836.52351 C 405.40197,836.36734 405.03532,836.28924 404.54156,836.28924 L 402.87697,836.28924 L 402.31965,838.83361 L 403.99158,838.83361 M 407.33545,835.33917 C 407.81454,835.46064 408.18363,835.68406 408.44275,836.00943 C 408.70673,836.33046 408.83872,836.72957 408.83873,837.20678 C 408.83872,838.25229 408.39874,839.07005 407.51878,839.66004 C 406.64369,840.24571 405.41175,840.53854 403.82292,840.53854 L 399.13711,840.53854 L 401.27102,830.82306 L 405.5022,830.82306 C 406.80258,830.82308 407.7632,830.99227 408.38408,831.33064 C 409.00982,831.66904 409.32271,832.19179 409.32272,832.89892 C 409.32271,833.49326 409.13938,834.01601 408.77274,834.46718 C 408.40607,834.91403 407.92698,835.20469 407.33545,835.33917 M 415.77579,835.13094 C 416.4162,835.13094 416.90018,834.99862 417.22774,834.73399 C 417.56016,834.46936 417.72638,834.08109 417.72639,833.56917 C 417.72638,833.24815 417.6115,833.01388 417.38173,832.86638 C 417.15684,832.71455 416.79997,832.63863 416.31111,832.63862 L 415.14516,832.63862 L 414.58784,835.13094 L 415.77579,835.13094 M 414.21386,836.86189 L 413.39988,840.53854 L 410.57666,840.53854 L 412.71058,830.82306 L 416.88308,830.82306 C 418.08569,830.82308 418.99743,831.02264 419.61831,831.42175 C 420.23916,831.82087 420.5496,832.4087 420.54961,833.18523 C 420.5496,833.97046 420.30516,834.61686 419.8163,835.12443 C 419.32743,835.63201 418.66501,835.92267 417.82905,835.99641 C 418.21036,836.06583 418.52812,836.23936 418.78234,836.517 C 419.03654,836.79031 419.25898,837.21112 419.44965,837.77943 L 420.38095,840.53854 L 417.57239,840.53854 L 416.75109,838.12432 C 416.58486,837.64278 416.38199,837.31307 416.14245,837.1352 C 415.90778,836.95299 415.56557,836.86189 415.11581,836.86189 L 414.21386,836.86189" id="text5534"/>
    </g>
    <path style="fill: rgb(0, 0, 0); fill-rule: evenodd; stroke: rgb(0, 0, 0); stroke-width: 1.85803px; stroke-linecap: butt; stroke-linejoin: miter; stroke-opacity: 1;" d="M 152.83483,541.09852 L 172.30761,598.34379 L 191.78038,591.07082 L 172.07299,523.73725 L 152.83483,541.09852 z" id="path5570" sodipodi:nodetypes="ccccc"/>
    <path sodipodi:nodetypes="ccccc" id="path5572" d="M 571.40219,543.13886 L 551.90946,597.89451 L 532.65135,590.35134 L 551.79241,527.00184 L 571.40219,543.13886 z" style="fill: rgb(0, 0, 0); fill-rule: evenodd; stroke: rgb(0, 0, 0); stroke-width: 1.81811px; stroke-linecap: butt; stroke-linejoin: miter; stroke-opacity: 1;"/>
  </g>
</svg>